<svg xmlns="http://www.w3.org/2000/svg" width="558.821" height="545.035" viewBox="0 0 558.821 545.035">
  <path id="github" d="M279.41,0C125.036,0,0,125.036,0,279.41,0,403.049,79.981,507.479,191.047,544.5c13.971,2.445,19.209-5.937,19.209-13.272,0-6.636-.349-28.64-.349-52.04-70.2,12.923-88.364-17.114-93.952-32.831-3.143-8.033-16.765-32.831-28.64-39.467-9.779-5.239-23.75-18.162-.349-18.511,22-.349,37.72,20.257,42.959,28.64,25.147,42.261,65.312,30.386,81.378,23.051,2.445-18.162,9.779-30.386,17.812-37.371-62.169-6.985-127.132-31.084-127.132-137.959,0-30.386,10.827-55.533,28.64-75.092-2.794-6.985-12.573-35.625,2.794-74.044,0,0,23.4-7.335,76.838,28.64a263.428,263.428,0,0,1,139.705,0c53.437-36.323,76.838-28.64,76.838-28.64,15.368,38.419,5.588,67.058,2.794,74.044,17.812,19.559,28.64,44.356,28.64,75.092,0,107.224-65.312,130.974-127.481,137.959,10.129,8.732,18.86,25.5,18.86,51.691,0,37.371-.349,67.408-.349,76.838,0,7.335,5.239,16.066,19.209,13.272A279.829,279.829,0,0,0,558.821,279.41C558.821,125.036,433.785,0,279.41,0Z" fill="#fff"/>
</svg>
