<svg id="XMLID_13_" xmlns="http://www.w3.org/2000/svg" xmlns:xlink="http://www.w3.org/1999/xlink" width="551.034" height="551.034" viewBox="0 0 551.034 551.034">
  <defs>
    <linearGradient id="linear-gradient" x1="0.5" y1="0.008" x2="0.5" y2="0.998" gradientUnits="objectBoundingBox">
      <stop offset="0" stop-color="#fbfbfb"/>
      <stop offset="0.3" stop-color="#fbfbfb"/>
      <stop offset="0.6" stop-color="#fbfbfb"/>
      <stop offset="1" stop-color="#fbfbfb"/>
    </linearGradient>
  </defs>
  <path id="XMLID_17_" d="M386.878,0H164.156C73.64,0,0,73.64,0,164.156V386.878c0,90.516,73.64,164.156,164.156,164.156H386.878c90.516,0,164.156-73.64,164.156-164.156V164.156C551.033,73.64,477.393,0,386.878,0ZM495.6,386.878A108.723,108.723,0,0,1,386.878,495.6H164.156A108.723,108.723,0,0,1,55.434,386.878V164.156A108.722,108.722,0,0,1,164.156,55.434H386.878A108.722,108.722,0,0,1,495.6,164.156V386.878Z" fill="url(#linear-gradient)"/>
  <path id="XMLID_81_" d="M275.517,133C196.933,133,133,196.933,133,275.516s63.933,142.517,142.517,142.517S418.034,354.1,418.034,275.516,354.1,133,275.517,133Zm0,229.6A87.083,87.083,0,1,1,362.6,275.517,87.083,87.083,0,0,1,275.517,362.6Z" fill="url(#linear-gradient)"/>
  <circle id="XMLID_83_" cx="34.149" cy="34.149" r="34.149" transform="translate(384.157 99.923)" fill="url(#linear-gradient)"/>
</svg>
