<svg xmlns="http://www.w3.org/2000/svg" width="524.345" height="524.344" viewBox="0 0 524.345 524.344">
  <path id="linkedin" d="M476.913,0H47.431A47.432,47.432,0,0,0,0,47.431V476.912a47.432,47.432,0,0,0,47.431,47.433H476.912a47.432,47.432,0,0,0,47.433-47.433V47.431A47.432,47.432,0,0,0,476.913,0ZM162.254,452.754a13.8,13.8,0,0,1-13.8,13.8H89.694a13.8,13.8,0,0,1-13.8-13.8V206.448a13.8,13.8,0,0,1,13.8-13.8h58.757a13.8,13.8,0,0,1,13.8,13.8ZM119.073,169.426a55.819,55.819,0,1,1,55.819-55.819A55.82,55.82,0,0,1,119.073,169.426ZM469.316,453.865a12.692,12.692,0,0,1-12.691,12.691h-63.05a12.692,12.692,0,0,1-12.691-12.691V338.334c0-17.235,5.055-75.523-45.04-75.523-38.858,0-46.739,39.9-48.322,57.8V453.865a12.691,12.691,0,0,1-12.691,12.691h-60.98a12.692,12.692,0,0,1-12.691-12.691V205.336a12.692,12.692,0,0,1,12.691-12.691h60.98a12.692,12.692,0,0,1,12.691,12.691v21.489c14.408-21.623,35.822-38.313,81.413-38.313,100.96,0,100.382,94.322,100.382,146.147V453.865Z" fill="#fbfbfb"/>
</svg>
