<svg xmlns="http://www.w3.org/2000/svg" width="434.045" height="433.999" viewBox="0 0 434.045 433.999">
  <g id="link" transform="translate(0 -0.01)">
    <path id="Path_61" data-name="Path 61" d="M315.077,34.369c-.113-.111-.227-.222-.343-.332a118.614,118.614,0,0,0-166.137.3c-.1.1-.194.2-.289.3l-74.394,74.4a16.686,16.686,0,0,0,23.6,23.595l74.67-74.681.231-.234a85.253,85.253,0,0,1,119.041.238c.1.1.2.2.3.291a84.447,84.447,0,0,1-.276,118.994l-74.665,74.674a16.687,16.687,0,0,0,23.6,23.595l74.667-74.674A117.86,117.86,0,0,0,315.077,34.369Z" transform="translate(84.552 0)" fill="#fbfbfb"/>
    <path id="Path_62" data-name="Path 62" d="M251.925,216.793,177.3,291.42c-.147.149-.294.3-.436.456A84.355,84.355,0,0,1,58,172.155l74.661-74.632a16.7,16.7,0,0,0,4.888-11.8v-.029A16.681,16.681,0,0,0,108.782,74.2l-74.389,74.36A117.729,117.729,0,0,0,200.857,315.08c.169-.167.334-.34.5-.516l74.171-74.171a16.687,16.687,0,0,0-23.6-23.6Z" transform="translate(0 84.527)" fill="#fbfbfb"/>
    <path id="Path_63" data-name="Path 63" d="M61.84,232.629a16.689,16.689,0,0,0,23.6,0l147.208-147.2a16.686,16.686,0,1,0-23.595-23.6L61.845,209.032A16.681,16.681,0,0,0,61.84,232.629Z" transform="translate(69.762 69.739)" fill="#fbfbfb"/>
  </g>
</svg>
