<svg xmlns="http://www.w3.org/2000/svg" width="607.095" height="546.372" viewBox="0 0 607.095 546.372">
  <path id="showwcase" d="M216.366,43.958A408.179,408.179,0,0,1,259.251,38.4c3.254-.249,5.518-.789,6.921-3.078,2.368-3.849,6.581-5.33,12.445-5.767a329.216,329.216,0,0,1,47.262-.176c7.631.528,12.719,2.465,15.645,7.485,1.153,1.973,3.139,2.7,6.113,2.914,6.211.437,12.385,1.1,18.54,1.924,8,1.068,15.912,2.422,24.211,3.782a52.024,52.024,0,0,0-6.168-12.925c-9.58-15.317-24.945-25.753-47.8-29.984C319.243-.6,301.862-.322,284.451.685a102.412,102.412,0,0,0-31,6.532c-20.228,7.771-30.178,21.042-37.087,36.741Zm-204.339,14A74.368,74.368,0,0,1,31.168,68.643c12.718,9.732,21.473,21.339,29.583,33.22,9.015,13.2,16.112,26.985,22.8,40.954a3.74,3.74,0,0,0,1.712-2.708,237.154,237.154,0,0,1,12.548-32.692c9.1-18.971,21.278-36.516,43.449-49.4,2.228-1.293,2.046-2.2.4-3.721a136.465,136.465,0,0,0-23.452-17.848,45.176,45.176,0,0,0-24.168-6.059c-20.058.328-38.307,5.057-55.609,12-9.968,4-19.245,8.681-26.408,15.572Zm263.894-13.7-2.076.3a4.068,4.068,0,0,0-.929-.206c-26.275,1.439-52.343,3.752-77.646,9.422-27.1,6.071-48.014,17.867-62.548,35.563-11.571,14.1-17.9,29.674-23.664,45.349-6.028,16.379-10.217,33.074-13.939,49.805-6.01,27.009-10.575,54.164-14.874,81.331q-4.627,29.719-8.6,59.536c-3.819,28.206-7.213,56.43-7.468,84.811-.237,24.9.528,49.72,11.11,73.755,6.939,15.76,18.88,28.715,38.975,37.348,20.823,8.948,43.613,13.781,66.949,17.417,34.561,5.385,69.681,7.158,104.929,7.564,37.882.437,75.734-.225,113.319-4.2,27.556-2.914,54.577-7.346,80.147-15.693,23.245-7.589,40.207-19.415,49.435-36.99,9.167-17.442,12.3-35.636,13.368-54.043,2.41-41.585-3.126-82.9-8.942-124.186-4.268-30.3-8.9-60.575-14.5-90.772-3.43-18.468-7.066-36.9-11.844-55.2-5.555-21.248-12.142-42.284-23.549-62.366-13.9-24.478-37.269-41.761-72.759-49.174-44.1-9.2-89.242-11.431-134.895-9.373ZM553.694,300.294a21.119,21.119,0,0,0,.971,7.17l2.8,19.372a4.825,4.825,0,0,0,.607,3.946c.656-1.627,2.088-2.55,1.639-3.91l8.5-30.324a4.866,4.866,0,0,0,.838-3.46c1.645-2.768,2.022-5.767,3.035-8.651,6.168-17.466,10.369-35.211,14.327-52.986,4.359-19.56,8.117-39.2,12.955-58.7a250.016,250.016,0,0,0,7.467-72.4c-.431-9-1.02-18.049-4.347-27.4-2.774,1.572-5.2,2.75-7.321,4.177-9.774,6.6-16.707,14.74-22.917,23.166-17.69,24-29.17,49.751-39.892,75.7a6.023,6.023,0,0,0,.079,3.879c5.549,23.543,9.58,47.231,13.392,70.944Q549.805,275.562,553.694,300.294ZM1.694,79.273C-.078,84.421.013,89.684,0,94.929-.06,118.758,3.51,142.367,7.8,165.958c3.721,20.5,8.894,40.8,13.933,61.127q7.264,29.617,15.165,59.07c5.063,18.691,6.89,37.62,8.815,56.555.14,1.384-.182,2.872,1.141,4.25.255-.389.583-.668.619-.971q5.17-41.621,11.875-83.031C63.7,236.047,67.861,209.122,74,182.386c.807-3.491,1.8-6.9-.012-10.563-3.545-7.176-6.223-14.57-9.634-21.782-9.027-19.075-18.638-38-33.05-55.366C25.474,87.632,19.433,80.626,10.09,75.612c-2.125-1.323-4.432-3.673-6.963-2.847-2.107.692-1.342,3.576-1.748,5.5-.061.316.2.668.316,1.008ZM564.463,41.409A181.671,181.671,0,0,0,503.038,31.27,31.641,31.641,0,0,0,486,36.279c-8.657,5.543-14.673,12.488-19.827,19.894-1.056,1.518.079,2.131,1.415,2.932a92.7,92.7,0,0,1,16.343,12.378c17.1,16.282,25.844,35.229,33.056,54.656,2.2,5.925,4.159,11.893,6.484,18.577,7.067-14.534,13.89-28.333,22.839-41.488,10.879-16,22.584-31.6,42.982-42.545l2.647-1.226,2.295-.923c2.125-.559.838-1.123,0-1.688a5.682,5.682,0,0,0-2.829-2.811,10.752,10.752,0,0,0-4.8-3.327,61.637,61.637,0,0,0-15.068-7.066c-2.264-.9-4.335-2.125-7.073-2.234Z" transform="translate(0 0)" fill="#fff" fill-rule="evenodd"/>
</svg>
